<svg xmlns="http://www.w3.org/2000/svg" width="120" height="19" viewBox="0 0 120 19">
  <g id="Grupo_32" data-name="Grupo 32" transform="translate(-194 -574)">
    <g id="Grupo_13" data-name="Grupo 13" transform="translate(192 572)">
      <path id="Caminho_3" data-name="Caminho 3" d="M12,17.27,18.18,21l-1.64-7.03L22,9.24l-7.19-.61L12,2,9.19,8.63,2,9.24l5.46,4.73L5.82,21Z" fill="#fbda4d"/>
    </g>
    <g id="Grupo_14" data-name="Grupo 14" transform="translate(217 572)">
      <path id="Caminho_3-2" data-name="Caminho 3" d="M12,17.27,18.18,21l-1.64-7.03L22,9.24l-7.19-.61L12,2,9.19,8.63,2,9.24l5.46,4.73L5.82,21Z" fill="#fbda4d"/>
    </g>
    <g id="Grupo_15" data-name="Grupo 15" transform="translate(242 572)">
      <path id="Caminho_3-3" data-name="Caminho 3" d="M12,17.27,18.18,21l-1.64-7.03L22,9.24l-7.19-.61L12,2,9.19,8.63,2,9.24l5.46,4.73L5.82,21Z" fill="#fbda4d"/>
    </g>
    <g id="Grupo_16" data-name="Grupo 16" transform="translate(267 572)">
      <path id="Caminho_3-4" data-name="Caminho 3" d="M12,17.27,18.18,21l-1.64-7.03L22,9.24l-7.19-.61L12,2,9.19,8.63,2,9.24l5.46,4.73L5.82,21Z" fill="#fbda4d"/>
    </g>
    <g id="Grupo_17" data-name="Grupo 17" transform="translate(292 572)">
      <path id="Caminho_3-5" data-name="Caminho 3" d="M12,17.27,18.18,21l-1.64-7.03L22,9.24l-7.19-.61L12,2,9.19,8.63,2,9.24l5.46,4.73L5.82,21Z" fill="#fbda4d"/>
    </g>
  </g>
</svg>
