<svg xmlns="http://www.w3.org/2000/svg" width="116.338" height="116.338" viewBox="0 0 116.338 116.338">
  <g id="Grupo_201" data-name="Grupo 201" transform="translate(330.46 -674.761)">
    <g id="donut_large-24px" transform="translate(-330.46 674.761)">
      <path id="Caminho_2101" data-name="Caminho 2101" d="M0,0H116.338V116.338H0Z" fill="none"/>
      <path id="Caminho_2102" data-name="Caminho 2102" d="M60.508,16.688A34.1,34.1,0,0,1,82.855,39.035a7.2,7.2,0,0,0,6.835,5.187h.194a7.2,7.2,0,0,0,6.932-9.259A48.7,48.7,0,0,0,64.532,2.679a7.176,7.176,0,0,0-9.21,6.932v.194a7.213,7.213,0,0,0,5.187,6.883ZM82.855,59.1A34,34,0,0,1,60.508,81.45a7.2,7.2,0,0,0-5.187,6.835v.194a7.2,7.2,0,0,0,9.259,6.932A48.7,48.7,0,0,0,96.864,63.127a7.191,7.191,0,0,0-6.883-9.259h-.242A7.317,7.317,0,0,0,82.855,59.1ZM45.627,88.382a7.36,7.36,0,0,0-5.284-6.98,33.861,33.861,0,0,1,0-64.665,7.36,7.36,0,0,0,5.284-6.98V9.708a7.267,7.267,0,0,0-9.356-6.98,48.467,48.467,0,0,0,0,92.683A7.274,7.274,0,0,0,45.627,88.382Z" transform="translate(7.695 9.1)"/>
    </g>
    <g id="donut_large-24px-2" data-name="donut_large-24px" transform="translate(-214.122 674.761) rotate(90)">
      <path id="Caminho_2101-2" data-name="Caminho 2101" d="M0,0H116.338V116.338H0Z" fill="none"/>
      <path id="Caminho_2102-2" data-name="Caminho 2102" d="M60.508,16.688A34.1,34.1,0,0,1,82.855,39.035a7.2,7.2,0,0,0,6.835,5.187h.194a7.2,7.2,0,0,0,6.932-9.259A48.7,48.7,0,0,0,64.532,2.679a7.176,7.176,0,0,0-9.21,6.932v.194a7.213,7.213,0,0,0,5.187,6.883ZM82.855,59.1A34,34,0,0,1,60.508,81.45a7.2,7.2,0,0,0-5.187,6.835v.194a7.2,7.2,0,0,0,9.259,6.932A48.7,48.7,0,0,0,96.864,63.127a7.191,7.191,0,0,0-6.883-9.259h-.242A7.317,7.317,0,0,0,82.855,59.1ZM45.627,88.382a7.36,7.36,0,0,0-5.284-6.98,33.861,33.861,0,0,1,0-64.665,7.36,7.36,0,0,0,5.284-6.98V9.708a7.267,7.267,0,0,0-9.356-6.98,48.467,48.467,0,0,0,0,92.683A7.274,7.274,0,0,0,45.627,88.382Z" transform="translate(7.695 9.1)"/>
    </g>
  </g>
</svg>
