<svg xmlns="http://www.w3.org/2000/svg" width="120" height="19" viewBox="0 0 120 19">
  <g id="Grupo_34" data-name="Grupo 34" transform="translate(-194 -641)">
    <path id="Caminho_28" data-name="Caminho 28" d="M22,9.24l-7.19-.62L12,2,9.19,8.63,2,9.24l5.46,4.73L5.82,21,12,17.27,18.18,21l-1.63-7.03ZM12,15.4,8.24,17.67l1-4.28L5.92,10.51l4.38-.38L12,6.1l1.71,4.04,4.38.38L14.77,13.4l1,4.28Z" transform="translate(242 639)" fill="#fbda4d"/>
    <path id="Caminho_29" data-name="Caminho 29" d="M22,9.24l-7.19-.62L12,2,9.19,8.63,2,9.24l5.46,4.73L5.82,21,12,17.27,18.18,21l-1.63-7.03ZM12,15.4,8.24,17.67l1-4.28L5.92,10.51l4.38-.38L12,6.1l1.71,4.04,4.38.38L14.77,13.4l1,4.28Z" transform="translate(267 639)" fill="#fbda4d"/>
    <path id="Caminho_30" data-name="Caminho 30" d="M22,9.24l-7.19-.62L12,2,9.19,8.63,2,9.24l5.46,4.73L5.82,21,12,17.27,18.18,21l-1.63-7.03ZM12,15.4,8.24,17.67l1-4.28L5.92,10.51l4.38-.38L12,6.1l1.71,4.04,4.38.38L14.77,13.4l1,4.28Z" transform="translate(292 639)" fill="#fbda4d"/>
    <g id="Grupo_18" data-name="Grupo 18" transform="translate(192 639)">
      <path id="Caminho_3" data-name="Caminho 3" d="M12,17.27,18.18,21l-1.64-7.03L22,9.24l-7.19-.61L12,2,9.19,8.63,2,9.24l5.46,4.73L5.82,21Z" fill="#fbda4d"/>
    </g>
    <path id="Caminho_31" data-name="Caminho 31" d="M22,9.24l-7.19-.62L12,2,9.19,8.63,2,9.24l5.46,4.73L5.82,21,12,17.27,18.18,21l-1.63-7.03ZM12,15.4V6.1l1.71,4.04,4.38.38L14.77,13.4l1,4.28Z" transform="translate(217 639)" fill="#fbda4d"/>
  </g>
</svg>
