<svg xmlns="http://www.w3.org/2000/svg" width="120" height="19" viewBox="0 0 120 19">
  <g id="Grupo_30" data-name="Grupo 30" transform="translate(-194 -520)">
    <path id="Caminho_18" data-name="Caminho 18" d="M22,9.24l-7.19-.62L12,2,9.19,8.63,2,9.24l5.46,4.73L5.82,21,12,17.27,18.18,21l-1.63-7.03ZM12,15.4,8.24,17.67l1-4.28L5.92,10.51l4.38-.38L12,6.1l1.71,4.04,4.38.38L14.77,13.4l1,4.28Z" transform="translate(267 518)" fill="#fbda4d"/>
    <path id="Caminho_19" data-name="Caminho 19" d="M22,9.24l-7.19-.62L12,2,9.19,8.63,2,9.24l5.46,4.73L5.82,21,12,17.27,18.18,21l-1.63-7.03ZM12,15.4,8.24,17.67l1-4.28L5.92,10.51l4.38-.38L12,6.1l1.71,4.04,4.38.38L14.77,13.4l1,4.28Z" transform="translate(292 518)" fill="#fbda4d"/>
    <g id="Grupo_6" data-name="Grupo 6" transform="translate(192 518)">
      <path id="Caminho_3" data-name="Caminho 3" d="M12,17.27,18.18,21l-1.64-7.03L22,9.24l-7.19-.61L12,2,9.19,8.63,2,9.24l5.46,4.73L5.82,21Z" fill="#fbda4d"/>
    </g>
    <g id="Grupo_7" data-name="Grupo 7" transform="translate(217 518)">
      <path id="Caminho_3-2" data-name="Caminho 3" d="M12,17.27,18.18,21l-1.64-7.03L22,9.24l-7.19-.61L12,2,9.19,8.63,2,9.24l5.46,4.73L5.82,21Z" fill="#fbda4d"/>
    </g>
    <g id="Grupo_8" data-name="Grupo 8" transform="translate(242 518)">
      <path id="Caminho_3-3" data-name="Caminho 3" d="M12,17.27,18.18,21l-1.64-7.03L22,9.24l-7.19-.61L12,2,9.19,8.63,2,9.24l5.46,4.73L5.82,21Z" fill="#fbda4d"/>
    </g>
  </g>
</svg>
